<svg width="64" height="64" viewBox="0 0 64 64" fill="none" xmlns="http://www.w3.org/2000/svg">
  <circle cx="32" cy="32" r="32" fill="#F7931A"/>
  <path d="M39.7 29.7c2.9-1.5 3.9-6.1-.3-8.4-1.7-.9-3.7-1.3-6-1.4V15h-3v4.8h-2.5V15h-3v4.8h-5.1v3.2h2.4c1 0 1.5.5 1.5 1.4v15.2c0 .9-.5 1.4-1.5 1.4h-2.4v3.2h5.1V49h3v-4.8h2.5V49h3v-4.8c2.7-.1 5-.6 6.8-1.7 4.6-2.7 4-8.5-.5-9.9Zm-10.8-6.4h4.1c2.9 0 4.4 1.1 4.4 3.1 0 2.1-1.5 3.2-4.6 3.2h-3.9v-6.3Zm4.7 17.5h-4.7v-7.1h4.8c3.4 0 5.1 1.2 5.1 3.5 0 2.4-1.8 3.6-5.2 3.6Z" fill="white"/>
</svg>
